# xmcd CD database file generated by MAGIX-FreeDB-MP3_Maker_16 v2.0beta1
# 
# Track frame offsets:
#      150
#      17210
#      30592
#      42879
#      59623
#      76615
#      91821
#      107737
#      130078
#      144198
#      156391
#      173926
#      188004
#      197427
#      213571
#      225242
#      239490
#      254613
#      269533
#      279384
# 
# Disc length: 3770 seconds
# 
# Revision: 1 
# Processed by: cddbd v1.5.2PL0 Copyright (c) Steve Scherf et al.
# Submitted via: MAGIX-FreeDB-MP3_Maker_16 v2.0beta1
# 
DISCID=0f0eb814
DTITLE=Diverse Künstler - McLEODS TÖCHTER - BEST SONGS
DYEAR=2009
DGENRE=Soundtrack
TTITLE0=Various Artist - Did I Tell You?
TTITLE1=Various Artist - Understand Me
TTITLE2=Various Artist - Am I Crazy?
TTITLE3=Various Artist - Common Ground
TTITLE4=Various Artist - Never Enough
TTITLE5=Various Artist - Broken Dreams
TTITLE6=Various Artist - The Man I Loved
TTITLE7=Various Artist - The Siren's Song
TTITLE8=Various Artist - Our Home, Our Place
TTITLE9=Various Artist - Hopeless Case
TTITLE10=Various Artist - Don't Judge
TTITLE11=Various Artist - Hey Girl (You Got A New Life)
TTITLE12=Various Artist - My Heart's Home (Drover's Run)
TTITLE13=Various Artist - In His Eyes
TTITLE14=Various Artist - Charlotte's Song
TTITLE15=Various Artist - Love You, Hate You
TTITLE16=Various Artist - Sometimes
TTITLE17=Various Artist - Just A Child
TTITLE18=Various Artist - My Heart Is Like A River
TTITLE19=Various Artist - Theme From McLeod's Daughters
EXTD=
EXTT0=
EXTT1=
EXTT2=
EXTT3=
EXTT4=
EXTT5=
EXTT6=
EXTT7=
EXTT8=
EXTT9=
EXTT10=
EXTT11=
EXTT12=
EXTT13=
EXTT14=
EXTT15=
EXTT16=
EXTT17=
EXTT18=
EXTT19=
PLAYORDER=
